<svg xmlns="http://www.w3.org/2000/svg" xmlns:xlink="http://www.w3.org/1999/xlink" width="500" zoomAndPan="magnify" viewBox="0 0 375 374.999991" height="500" preserveAspectRatio="xMidYMid meet" version="1.0"><defs><g/><clipPath id="f7d4bc6e32"><path d="M 90 220 L 143 220 L 143 223.410156 L 90 223.410156 Z M 90 220 " clip-rule="nonzero"/></clipPath><clipPath id="b6818cf8f0"><path d="M 71.71875 151.410156 L 160.96875 151.410156 L 160.96875 218 L 71.71875 218 Z M 71.71875 151.410156 " clip-rule="nonzero"/></clipPath></defs><g clip-path="url(#f7d4bc6e32)"><path fill="#526ed3" d="M 141.171875 220.285156 L 91.679688 220.285156 C 90.882812 220.285156 90.226562 220.941406 90.226562 221.742188 C 90.226562 222.539062 90.882812 223.195312 91.679688 223.195312 L 141.171875 223.195312 C 141.972656 223.195312 142.628906 222.539062 142.628906 221.742188 C 142.628906 220.941406 141.972656 220.285156 141.171875 220.285156 Z M 141.171875 220.285156 " fill-opacity="1" fill-rule="evenodd"/></g><g clip-path="url(#b6818cf8f0)"><path fill="#314692" d="M 110.800781 185.257812 C 110.800781 185.949219 110.234375 186.511719 109.546875 186.511719 L 105.164062 186.511719 C 104.472656 186.511719 103.910156 185.949219 103.910156 185.257812 C 103.910156 184.570312 104.472656 184.007812 105.164062 184.007812 L 109.546875 184.007812 C 110.234375 184.007812 110.800781 184.570312 110.800781 185.257812 Z M 109.515625 180.625 L 105.132812 180.625 C 104.441406 180.625 103.878906 180.0625 103.878906 179.371094 C 103.878906 178.683594 104.441406 178.121094 105.132812 178.121094 L 109.515625 178.121094 C 110.203125 178.121094 110.765625 178.683594 110.765625 179.371094 C 110.765625 180.0625 110.203125 180.625 109.515625 180.625 Z M 109.484375 174.738281 L 105.101562 174.738281 C 104.410156 174.738281 103.847656 174.175781 103.847656 173.484375 C 103.847656 172.796875 104.410156 172.234375 105.101562 172.234375 L 109.484375 172.234375 C 110.171875 172.234375 110.734375 172.796875 110.734375 173.484375 C 110.734375 174.175781 110.171875 174.738281 109.484375 174.738281 Z M 109.453125 168.851562 L 105.070312 168.851562 C 104.378906 168.851562 103.816406 168.285156 103.816406 167.597656 C 103.816406 166.910156 104.378906 166.34375 105.070312 166.34375 L 109.453125 166.34375 C 110.140625 166.34375 110.703125 166.910156 110.703125 167.597656 C 110.703125 168.285156 110.140625 168.851562 109.453125 168.851562 Z M 109.609375 201.699219 C 110.296875 201.699219 110.863281 202.261719 110.863281 202.953125 C 110.863281 203.640625 110.296875 204.203125 109.609375 204.203125 L 105.226562 204.203125 C 104.535156 204.203125 103.972656 203.640625 103.972656 202.953125 C 103.972656 202.261719 104.535156 201.699219 105.226562 201.699219 Z M 105.242188 207.585938 L 109.625 207.585938 C 110.3125 207.585938 110.878906 208.148438 110.878906 208.839844 C 110.878906 209.527344 110.3125 210.089844 109.625 210.089844 L 105.242188 210.089844 C 104.550781 210.089844 103.988281 209.527344 103.988281 208.839844 C 103.988281 208.148438 104.550781 207.585938 105.242188 207.585938 Z M 110.832031 197.050781 C 110.832031 197.738281 110.265625 198.300781 109.578125 198.300781 L 105.195312 198.300781 C 104.503906 198.300781 103.941406 197.738281 103.941406 197.050781 C 103.941406 196.359375 104.503906 195.796875 105.195312 195.796875 L 109.578125 195.796875 C 110.265625 195.796875 110.832031 196.359375 110.832031 197.050781 Z M 109.546875 192.414062 L 105.164062 192.414062 C 104.472656 192.414062 103.910156 191.851562 103.910156 191.164062 C 103.910156 190.472656 104.472656 189.910156 105.164062 189.910156 L 109.546875 189.910156 C 110.234375 189.910156 110.800781 190.472656 110.800781 191.164062 C 110.800781 191.851562 110.234375 192.414062 109.546875 192.414062 Z M 117.859375 205.691406 L 117.859375 200.242188 L 131.8125 208.902344 L 131.8125 214.195312 L 131.574219 214.195312 Z M 134.722656 214.195312 L 134.722656 189.878906 L 147.53125 196.390625 L 147.53125 214.195312 Z M 98.085938 178.777344 L 98.085938 214.195312 L 85.277344 214.195312 L 85.277344 185.289062 Z M 73.160156 217.105469 L 159.648438 217.105469 C 160.449219 217.105469 161.105469 216.449219 161.105469 215.648438 C 161.105469 214.851562 160.449219 214.195312 159.648438 214.195312 L 150.441406 214.195312 L 150.441406 195.5 C 150.441406 194.949219 150.128906 194.449219 149.644531 194.199219 L 147.6875 193.199219 L 134.722656 186.605469 L 134.722656 163.714844 C 134.722656 163.214844 134.457031 162.746094 134.035156 162.476562 L 117.171875 152.019531 C 117.15625 152.019531 117.140625 152.003906 117.125 152.003906 C 117.03125 151.957031 116.9375 151.910156 116.84375 151.878906 C 116.8125 151.863281 116.78125 151.863281 116.765625 151.847656 C 116.65625 151.816406 116.53125 151.800781 116.402344 151.800781 C 116.277344 151.800781 116.167969 151.816406 116.042969 151.847656 C 116.011719 151.863281 115.980469 151.863281 115.964844 151.878906 C 115.871094 151.910156 115.777344 151.957031 115.683594 152.003906 C 115.667969 152.003906 115.652344 152.019531 115.636719 152.019531 L 98.773438 162.476562 C 98.351562 162.746094 98.085938 163.214844 98.085938 163.714844 L 98.085938 175.503906 L 83.179688 183.082031 C 82.695312 183.332031 82.382812 183.835938 82.382812 184.382812 L 82.382812 214.179688 L 73.175781 214.179688 C 72.375 214.179688 71.71875 214.835938 71.71875 215.632812 C 71.71875 216.433594 72.375 217.089844 73.175781 217.089844 Z M 131.8125 196.59375 L 117.859375 187.9375 L 117.859375 182.488281 L 131.8125 191.144531 Z M 131.8125 187.71875 L 117.859375 179.058594 L 117.859375 173.609375 L 131.8125 182.269531 Z M 131.8125 178.839844 L 117.859375 170.179688 L 117.859375 164.734375 L 131.8125 173.390625 Z M 131.8125 205.457031 L 117.859375 196.796875 L 117.859375 191.351562 L 131.8125 200.007812 Z M 117.859375 214.179688 L 117.859375 209.105469 L 126.050781 214.179688 Z M 131.8125 169.960938 L 117.859375 161.304688 L 117.859375 155.855469 L 131.8125 164.511719 Z M 131.8125 169.960938 " fill-opacity="1" fill-rule="evenodd"/></g><path fill="#526ed3" d="M 137.605469 195.203125 L 137.605469 211.0625 C 137.605469 211.65625 138.089844 212.160156 138.699219 212.160156 C 139.3125 212.160156 139.796875 211.671875 139.796875 211.0625 L 139.796875 195.203125 C 139.796875 194.589844 139.3125 194.105469 138.699219 194.105469 C 138.105469 194.105469 137.605469 194.589844 137.605469 195.203125 Z M 137.605469 195.203125 " fill-opacity="1" fill-rule="evenodd"/><path fill="#526ed3" d="M 142.488281 199.804688 L 142.488281 211.0625 C 142.488281 211.65625 142.972656 212.160156 143.585938 212.160156 C 144.195312 212.160156 144.679688 211.671875 144.679688 211.0625 L 144.679688 199.804688 C 144.679688 199.195312 144.195312 198.707031 143.585938 198.707031 C 142.988281 198.707031 142.488281 199.195312 142.488281 199.804688 Z M 142.488281 199.804688 " fill-opacity="1" fill-rule="evenodd"/><path fill="#526ed3" d="M 95.234375 211.0625 L 95.234375 184.445312 C 95.234375 183.835938 94.75 183.347656 94.140625 183.347656 C 93.542969 183.347656 93.042969 183.835938 93.042969 184.445312 L 93.042969 211.0625 C 93.042969 211.65625 93.527344 212.160156 94.140625 212.160156 C 94.75 212.160156 95.234375 211.671875 95.234375 211.0625 Z M 95.234375 211.0625 " fill-opacity="1" fill-rule="evenodd"/><path fill="#526ed3" d="M 90.351562 211.0625 L 90.351562 189.0625 C 90.351562 188.453125 89.867188 187.96875 89.253906 187.96875 C 88.660156 187.96875 88.160156 188.453125 88.160156 189.0625 L 88.160156 211.0625 C 88.160156 211.65625 88.644531 212.160156 89.253906 212.160156 C 89.847656 212.160156 90.351562 211.671875 90.351562 211.0625 Z M 90.351562 211.0625 " fill-opacity="1" fill-rule="evenodd"/><g fill="#000000" fill-opacity="1"><g transform="translate(161.129598, 188.718001)"><g><path d="M 24.4375 0 L 24.4375 -18.9375 L 16.25 -4.375 L 14.328125 -4.375 L 6.109375 -18.9375 L 6.109375 0 L 2.96875 0 L 2.96875 -24.8125 L 6.296875 -24.8125 L 15.28125 -8.703125 L 24.296875 -24.8125 L 27.578125 -24.8125 L 27.578125 0 Z M 24.4375 0 "/></g></g></g><g fill="#000000" fill-opacity="1"><g transform="translate(191.673628, 188.718001)"><g><path d="M 10.515625 -24.8125 L 13.171875 -24.8125 L 23.3125 0 L 19.953125 0 L 17.015625 -7.265625 L 6.609375 -7.265625 L 3.703125 0 L 0.34375 0 Z M 16.328125 -9.71875 L 11.84375 -21.1875 L 7.234375 -9.71875 Z M 16.328125 -9.71875 "/></g></g></g><g fill="#000000" fill-opacity="1"><g transform="translate(215.333024, 188.718001)"><g><path d="M 2.96875 0 L 2.96875 -24.8125 L 13.59375 -24.8125 C 14.6875 -24.8125 15.6875 -24.582031 16.59375 -24.125 C 17.507812 -23.675781 18.304688 -23.070312 18.984375 -22.3125 C 19.660156 -21.5625 20.179688 -20.710938 20.546875 -19.765625 C 20.921875 -18.816406 21.109375 -17.851562 21.109375 -16.875 C 21.109375 -15.738281 20.890625 -14.65625 20.453125 -13.625 C 20.023438 -12.601562 19.421875 -11.726562 18.640625 -11 C 17.859375 -10.28125 16.945312 -9.78125 15.90625 -9.5 L 21.921875 0 L 18.34375 0 L 12.6875 -8.90625 L 6.109375 -8.90625 L 6.109375 0 Z M 6.109375 -11.703125 L 13.625 -11.703125 C 14.488281 -11.703125 15.238281 -11.941406 15.875 -12.421875 C 16.519531 -12.898438 17.023438 -13.535156 17.390625 -14.328125 C 17.753906 -15.117188 17.9375 -15.96875 17.9375 -16.875 C 17.9375 -17.8125 17.722656 -18.671875 17.296875 -19.453125 C 16.878906 -20.234375 16.332031 -20.851562 15.65625 -21.3125 C 14.976562 -21.78125 14.234375 -22.015625 13.421875 -22.015625 L 6.109375 -22.015625 Z M 6.109375 -11.703125 "/></g></g></g><g fill="#000000" fill-opacity="1"><g transform="translate(238.293464, 188.718001)"><g><path d="M 22.015625 -6.390625 C 22.015625 -5.109375 21.6875 -3.988281 21.03125 -3.03125 C 20.382812 -2.082031 19.507812 -1.335938 18.40625 -0.796875 C 17.300781 -0.265625 16.082031 0 14.75 0 L 2.96875 0 L 2.96875 -24.8125 L 15.3125 -24.8125 C 16.476562 -24.8125 17.484375 -24.503906 18.328125 -23.890625 C 19.179688 -23.273438 19.832031 -22.484375 20.28125 -21.515625 C 20.738281 -20.546875 20.96875 -19.535156 20.96875 -18.484375 C 20.96875 -17.273438 20.660156 -16.140625 20.046875 -15.078125 C 19.429688 -14.015625 18.550781 -13.226562 17.40625 -12.71875 C 18.820312 -12.300781 19.941406 -11.523438 20.765625 -10.390625 C 21.597656 -9.265625 22.015625 -7.929688 22.015625 -6.390625 Z M 18.84375 -6.953125 C 18.84375 -7.722656 18.671875 -8.429688 18.328125 -9.078125 C 17.992188 -9.734375 17.539062 -10.257812 16.96875 -10.65625 C 16.394531 -11.050781 15.738281 -11.25 15 -11.25 L 6.109375 -11.25 L 6.109375 -2.71875 L 14.75 -2.71875 C 15.519531 -2.71875 16.210938 -2.914062 16.828125 -3.3125 C 17.441406 -3.71875 17.929688 -4.238281 18.296875 -4.875 C 18.660156 -5.519531 18.84375 -6.210938 18.84375 -6.953125 Z M 6.109375 -22.09375 L 6.109375 -13.8125 L 14.015625 -13.8125 C 14.765625 -13.8125 15.421875 -13.992188 15.984375 -14.359375 C 16.554688 -14.734375 17.007812 -15.234375 17.34375 -15.859375 C 17.6875 -16.492188 17.859375 -17.1875 17.859375 -17.9375 C 17.859375 -18.726562 17.703125 -19.429688 17.390625 -20.046875 C 17.078125 -20.660156 16.644531 -21.15625 16.09375 -21.53125 C 15.550781 -21.90625 14.925781 -22.09375 14.21875 -22.09375 Z M 6.109375 -22.09375 "/></g></g></g><g fill="#000000" fill-opacity="1"><g transform="translate(261.743171, 188.718001)"><g><path d="M 2.96875 0 L 2.96875 -24.8125 L 6.109375 -24.8125 L 6.109375 -2.796875 L 19.953125 -2.796875 L 19.953125 0 Z M 2.96875 0 "/></g></g></g><g fill="#000000" fill-opacity="1"><g transform="translate(282.152452, 188.718001)"><g><path d="M 19.8125 -2.796875 L 19.8125 0 L 2.96875 0 L 2.96875 -24.8125 L 19.5 -24.8125 L 19.5 -22.015625 L 6.109375 -22.015625 L 6.109375 -13.984375 L 17.75 -13.984375 L 17.75 -11.359375 L 6.109375 -11.359375 L 6.109375 -2.796875 Z M 19.8125 -2.796875 "/></g></g></g><g fill="#545454" fill-opacity="1"><g transform="translate(189.146915, 214.62709)"><g><path d="M 9.015625 -10.078125 C 8.867188 -10.242188 8.675781 -10.40625 8.4375 -10.5625 C 8.195312 -10.71875 7.925781 -10.859375 7.625 -10.984375 C 7.332031 -11.109375 7.007812 -11.207031 6.65625 -11.28125 C 6.300781 -11.363281 5.929688 -11.40625 5.546875 -11.40625 C 4.566406 -11.40625 3.84375 -11.21875 3.375 -10.84375 C 2.90625 -10.476562 2.671875 -9.972656 2.671875 -9.328125 C 2.671875 -8.867188 2.789062 -8.507812 3.03125 -8.25 C 3.269531 -7.988281 3.640625 -7.769531 4.140625 -7.59375 C 4.640625 -7.425781 5.269531 -7.253906 6.03125 -7.078125 C 6.914062 -6.890625 7.679688 -6.65625 8.328125 -6.375 C 8.984375 -6.101562 9.484375 -5.734375 9.828125 -5.265625 C 10.171875 -4.804688 10.34375 -4.195312 10.34375 -3.4375 C 10.34375 -2.820312 10.226562 -2.289062 10 -1.84375 C 9.769531 -1.394531 9.441406 -1.019531 9.015625 -0.71875 C 8.597656 -0.425781 8.109375 -0.210938 7.546875 -0.078125 C 6.984375 0.0546875 6.375 0.125 5.71875 0.125 C 5.070312 0.125 4.4375 0.0546875 3.8125 -0.078125 C 3.195312 -0.210938 2.613281 -0.410156 2.0625 -0.671875 C 1.507812 -0.941406 0.992188 -1.273438 0.515625 -1.671875 L 1.296875 -3.03125 C 1.484375 -2.832031 1.726562 -2.632812 2.03125 -2.4375 C 2.34375 -2.238281 2.691406 -2.054688 3.078125 -1.890625 C 3.472656 -1.722656 3.894531 -1.585938 4.34375 -1.484375 C 4.800781 -1.378906 5.269531 -1.328125 5.75 -1.328125 C 6.65625 -1.328125 7.359375 -1.488281 7.859375 -1.8125 C 8.367188 -2.144531 8.625 -2.628906 8.625 -3.265625 C 8.625 -3.742188 8.484375 -4.125 8.203125 -4.40625 C 7.921875 -4.695312 7.503906 -4.9375 6.953125 -5.125 C 6.398438 -5.320312 5.726562 -5.519531 4.9375 -5.71875 C 4.070312 -5.925781 3.347656 -6.160156 2.765625 -6.421875 C 2.179688 -6.679688 1.738281 -7.019531 1.4375 -7.4375 C 1.144531 -7.851562 1 -8.398438 1 -9.078125 C 1 -9.890625 1.195312 -10.578125 1.59375 -11.140625 C 1.988281 -11.703125 2.535156 -12.125 3.234375 -12.40625 C 3.929688 -12.695312 4.71875 -12.84375 5.59375 -12.84375 C 6.164062 -12.84375 6.695312 -12.78125 7.1875 -12.65625 C 7.6875 -12.539062 8.148438 -12.375 8.578125 -12.15625 C 9.015625 -11.945312 9.414062 -11.691406 9.78125 -11.390625 Z M 9.015625 -10.078125 "/></g></g></g><g fill="#545454" fill-opacity="1"><g transform="translate(207.257925, 214.62709)"><g><path d="M 1.53125 0 L 1.53125 -12.75 L 6.84375 -12.75 C 7.40625 -12.75 7.921875 -12.632812 8.390625 -12.40625 C 8.859375 -12.175781 9.265625 -11.863281 9.609375 -11.46875 C 9.960938 -11.082031 10.234375 -10.644531 10.421875 -10.15625 C 10.609375 -9.675781 10.703125 -9.179688 10.703125 -8.671875 C 10.703125 -7.984375 10.546875 -7.320312 10.234375 -6.6875 C 9.929688 -6.0625 9.492188 -5.550781 8.921875 -5.15625 C 8.359375 -4.769531 7.703125 -4.578125 6.953125 -4.578125 L 3.140625 -4.578125 L 3.140625 0 Z M 3.140625 -6.015625 L 6.859375 -6.015625 C 7.304688 -6.015625 7.691406 -6.132812 8.015625 -6.375 C 8.347656 -6.613281 8.609375 -6.9375 8.796875 -7.34375 C 8.984375 -7.75 9.078125 -8.191406 9.078125 -8.671875 C 9.078125 -9.179688 8.96875 -9.632812 8.75 -10.03125 C 8.53125 -10.4375 8.25 -10.75 7.90625 -10.96875 C 7.5625 -11.195312 7.175781 -11.3125 6.75 -11.3125 L 3.140625 -11.3125 Z M 3.140625 -6.015625 "/></g></g></g><g fill="#545454" fill-opacity="1"><g transform="translate(225.62044, 214.62709)"><g><path d="M 5.40625 -12.75 L 6.78125 -12.75 L 11.984375 0 L 10.265625 0 L 8.75 -3.734375 L 3.390625 -3.734375 L 1.90625 0 L 0.171875 0 Z M 8.390625 -5 L 6.09375 -10.890625 L 3.71875 -5 Z M 8.390625 -5 "/></g></g></g><g fill="#545454" fill-opacity="1"><g transform="translate(244.953064, 214.62709)"><g><path d="M 0.703125 -6.46875 C 0.703125 -7.25 0.835938 -8.007812 1.109375 -8.75 C 1.378906 -9.5 1.773438 -10.179688 2.296875 -10.796875 C 2.816406 -11.421875 3.453125 -11.914062 4.203125 -12.28125 C 4.960938 -12.644531 5.820312 -12.828125 6.78125 -12.828125 C 7.914062 -12.828125 8.890625 -12.566406 9.703125 -12.046875 C 10.515625 -11.523438 11.117188 -10.859375 11.515625 -10.046875 L 10.234375 -9.21875 C 9.984375 -9.757812 9.664062 -10.1875 9.28125 -10.5 C 8.894531 -10.820312 8.472656 -11.046875 8.015625 -11.171875 C 7.566406 -11.304688 7.128906 -11.375 6.703125 -11.375 C 5.992188 -11.375 5.363281 -11.226562 4.8125 -10.9375 C 4.269531 -10.65625 3.8125 -10.273438 3.4375 -9.796875 C 3.070312 -9.316406 2.796875 -8.78125 2.609375 -8.1875 C 2.421875 -7.59375 2.328125 -6.992188 2.328125 -6.390625 C 2.328125 -5.734375 2.4375 -5.097656 2.65625 -4.484375 C 2.882812 -3.878906 3.195312 -3.34375 3.59375 -2.875 C 3.988281 -2.40625 4.453125 -2.03125 4.984375 -1.75 C 5.523438 -1.476562 6.113281 -1.34375 6.75 -1.34375 C 7.195312 -1.34375 7.65625 -1.421875 8.125 -1.578125 C 8.59375 -1.734375 9.03125 -1.972656 9.4375 -2.296875 C 9.84375 -2.628906 10.164062 -3.0625 10.40625 -3.59375 L 11.75 -2.859375 C 11.488281 -2.222656 11.082031 -1.679688 10.53125 -1.234375 C 9.976562 -0.796875 9.363281 -0.460938 8.6875 -0.234375 C 8.007812 -0.00390625 7.34375 0.109375 6.6875 0.109375 C 5.8125 0.109375 5.007812 -0.078125 4.28125 -0.453125 C 3.550781 -0.835938 2.914062 -1.34375 2.375 -1.96875 C 1.84375 -2.59375 1.429688 -3.296875 1.140625 -4.078125 C 0.847656 -4.867188 0.703125 -5.664062 0.703125 -6.46875 Z M 0.703125 -6.46875 "/></g></g></g><g fill="#545454" fill-opacity="1"><g transform="translate(264.375506, 214.62709)"><g><path d="M 10.1875 -1.4375 L 10.1875 0 L 1.53125 0 L 1.53125 -12.75 L 10.03125 -12.75 L 10.03125 -11.3125 L 3.140625 -11.3125 L 3.140625 -7.1875 L 9.125 -7.1875 L 9.125 -5.84375 L 3.140625 -5.84375 L 3.140625 -1.4375 Z M 10.1875 -1.4375 "/></g></g></g></svg>